<svg width="512" height="512" viewBox="0 0 512 512" fill="none" xmlns="http://www.w3.org/2000/svg">
<g clip-path="url(#clip0)">
<rect width="512" height="512" fill="#202020"/>
<path d="M258.465 133.76V249.759" stroke="#E6E6E6" stroke-width="3.12136" stroke-linecap="round"/>
<path d="M257.6 33.3438V128.566" stroke="white" stroke-width="3.12136" stroke-linecap="round"/>
<path d="M175.362 81.8206L257.827 129.432" stroke="#EEEEEE" stroke-width="3.12136" stroke-linecap="round"/>
<path d="M164.974 106.059L257.545 128.373" stroke="#BDBDBD" stroke-width="3.12136" stroke-linecap="round"/>
<path d="M258.642 131.118L350.899 107.541" stroke="#CDCDCD" stroke-width="3.12136" stroke-linecap="round"/>
<path d="M256.925 130.307L203.738 209.291" stroke="#EAEAEA" stroke-width="3.12136" stroke-linecap="round"/>
<path d="M258.465 130.298L311.652 209.282" stroke="#CBCBCB" stroke-width="3.12136" stroke-linecap="round"/>
<path d="M225.965 137.842L255.987 249.888" stroke="#E6E6E6" stroke-width="3.12136" stroke-linecap="round"/>
<path d="M199.138 41.071L223.784 133.049" stroke="white" stroke-width="3.12136" stroke-linecap="round"/>
<path d="M132.25 109.181L224.228 133.827" stroke="#EEEEEE" stroke-width="3.12136" stroke-linecap="round"/>
<path d="M128.489 135.282L223.681 132.876" stroke="#BDBDBD" stroke-width="3.12136" stroke-linecap="round"/>
<path d="M225.451 135.244L308.463 88.5926" stroke="#CDCDCD" stroke-width="3.12136" stroke-linecap="round"/>
<path d="M223.583 134.905L192.65 224.964" stroke="#EAEAEA" stroke-width="3.12136" stroke-linecap="round"/>
<path d="M225.068 134.498L296.885 197.025" stroke="#CBCBCB" stroke-width="3.12136" stroke-linecap="round"/>
<path d="M316.874 351.948L258.875 251.49" stroke="#E6E6E6" stroke-width="3.12136" stroke-linecap="round"/>
<path d="M367.832 438.479L320.221 356.013" stroke="white" stroke-width="3.12136" stroke-linecap="round"/>
<path d="M414.814 355.377H319.591" stroke="#EEEEEE" stroke-width="3.12136" stroke-linecap="round"/>
<path d="M411.69 329.192L320.364 356.154" stroke="#BDBDBD" stroke-width="3.12136" stroke-linecap="round"/>
<path d="M318.042 354.324L249.933 420.871" stroke="#CDCDCD" stroke-width="3.12136" stroke-linecap="round"/>
<path d="M319.935 354.168L326.504 259.172" stroke="#EAEAEA" stroke-width="3.12136" stroke-linecap="round"/>
<path d="M318.605 354.947L233.052 313.138" stroke="#CBCBCB" stroke-width="3.12136" stroke-linecap="round"/>
<path d="M338.854 333.478L256.83 251.455" stroke="#E6E6E6" stroke-width="3.12136" stroke-linecap="round"/>
<path d="M410.471 403.871L343.139 336.539" stroke="white" stroke-width="3.12136" stroke-linecap="round"/>
<path d="M434.344 311.442L342.366 336.087" stroke="#EEEEEE" stroke-width="3.12136" stroke-linecap="round"/>
<path d="M424.55 286.957L343.314 336.637" stroke="#BDBDBD" stroke-width="3.12136" stroke-linecap="round"/>
<path d="M340.597 335.471L292.033 417.379" stroke="#CDCDCD" stroke-width="3.12136" stroke-linecap="round"/>
<path d="M342.385 334.831L324.144 241.371" stroke="#EAEAEA" stroke-width="3.12136" stroke-linecap="round"/>
<path d="M341.302 335.926L247.843 317.685" stroke="#CBCBCB" stroke-width="3.12136" stroke-linecap="round"/>
<path d="M199.194 351.948L257.193 251.49" stroke="#E6E6E6" stroke-width="3.12136" stroke-linecap="round"/>
<path d="M148.236 438.479L195.847 356.013" stroke="white" stroke-width="3.12136" stroke-linecap="round"/>
<path d="M101.254 355.377H196.477" stroke="#EEEEEE" stroke-width="3.12136" stroke-linecap="round"/>
<path d="M104.377 329.192L195.703 356.154" stroke="#BDBDBD" stroke-width="3.12136" stroke-linecap="round"/>
<path d="M198.026 354.324L266.135 420.871" stroke="#CDCDCD" stroke-width="3.12136" stroke-linecap="round"/>
<path d="M196.133 354.168L189.564 259.172" stroke="#EAEAEA" stroke-width="3.12136" stroke-linecap="round"/>
<path d="M197.463 354.947L283.016 313.138" stroke="#CBCBCB" stroke-width="3.12136" stroke-linecap="round"/>
<path d="M225.184 363.936L255.207 251.89" stroke="#E6E6E6" stroke-width="3.12136" stroke-linecap="round"/>
<path d="M198.358 460.707L223.004 368.729" stroke="white" stroke-width="3.12136" stroke-linecap="round"/>
<path d="M131.469 392.597L223.447 367.952" stroke="#EEEEEE" stroke-width="3.12136" stroke-linecap="round"/>
<path d="M127.709 366.496L222.901 368.902" stroke="#BDBDBD" stroke-width="3.12136" stroke-linecap="round"/>
<path d="M224.671 366.534L307.682 413.186" stroke="#CDCDCD" stroke-width="3.12136" stroke-linecap="round"/>
<path d="M222.802 366.873L191.87 276.814" stroke="#EAEAEA" stroke-width="3.12136" stroke-linecap="round"/>
<path d="M224.288 367.28L296.105 304.753" stroke="#CBCBCB" stroke-width="3.12136" stroke-linecap="round"/>
<path d="M155.309 188.553L255.767 246.552" stroke="#E6E6E6" stroke-width="3.12136" stroke-linecap="round"/>
<path d="M67.9126 139.094L150.378 186.706" stroke="white" stroke-width="3.12136" stroke-linecap="round"/>
<path d="M68.7761 234.553L151.241 186.941" stroke="#EEEEEE" stroke-width="3.12136" stroke-linecap="round"/>
<path d="M84.5735 255.668L150.183 186.656" stroke="#BDBDBD" stroke-width="3.12136" stroke-linecap="round"/>
<path d="M153.109 187.079L178.82 95.3926" stroke="#CDCDCD" stroke-width="3.12136" stroke-linecap="round"/>
<path d="M151.548 188.16L193.357 273.713" stroke="#EAEAEA" stroke-width="3.12136" stroke-linecap="round"/>
<path d="M152.31 186.821L247.306 180.252" stroke="#CBCBCB" stroke-width="3.12136" stroke-linecap="round"/>
<path d="M140.504 217.467L252.55 247.489" stroke="#E6E6E6" stroke-width="3.12136" stroke-linecap="round"/>
<path d="M43.2852 192.313L135.263 216.958" stroke="white" stroke-width="3.12136" stroke-linecap="round"/>
<path d="M68.8259 284.295L136.159 216.963" stroke="#EEEEEE" stroke-width="3.12136" stroke-linecap="round"/>
<path d="M89.5498 300.602L135.062 216.96" stroke="#BDBDBD" stroke-width="3.12136" stroke-linecap="round"/>
<path d="M137.998 216.612L139.102 121.396" stroke="#CDCDCD" stroke-width="3.12136" stroke-linecap="round"/>
<path d="M136.77 218.061L199.297 289.878" stroke="#EAEAEA" stroke-width="3.12136" stroke-linecap="round"/>
<path d="M137.16 216.57L227.218 185.638" stroke="#CBCBCB" stroke-width="3.12136" stroke-linecap="round"/>
<path d="M360.126 187.842L259.668 245.841" stroke="#E6E6E6" stroke-width="3.12136" stroke-linecap="round"/>
<path d="M447.522 138.383L365.057 185.994" stroke="white" stroke-width="3.12136" stroke-linecap="round"/>
<path d="M446.658 233.842L364.193 186.23" stroke="#EEEEEE" stroke-width="3.12136" stroke-linecap="round"/>
<path d="M430.861 254.957L365.251 185.945" stroke="#BDBDBD" stroke-width="3.12136" stroke-linecap="round"/>
<path d="M362.326 186.367L336.616 94.6814" stroke="#CDCDCD" stroke-width="3.12136" stroke-linecap="round"/>
<path d="M363.887 187.449L322.078 273.002" stroke="#EAEAEA" stroke-width="3.12136" stroke-linecap="round"/>
<path d="M363.125 186.11L268.129 179.541" stroke="#CBCBCB" stroke-width="3.12136" stroke-linecap="round"/>
<path d="M338.158 163.769L256.134 245.792" stroke="#E6E6E6" stroke-width="3.12136" stroke-linecap="round"/>
<path d="M409.775 93.375L342.443 160.708" stroke="white" stroke-width="3.12136" stroke-linecap="round"/>
<path d="M433.647 185.805L341.669 161.159" stroke="#EEEEEE" stroke-width="3.12136" stroke-linecap="round"/>
<path d="M423.854 210.289L342.618 160.61" stroke="#BDBDBD" stroke-width="3.12136" stroke-linecap="round"/>
<path d="M339.901 161.776L291.337 79.8681" stroke="#CDCDCD" stroke-width="3.12136" stroke-linecap="round"/>
<path d="M341.689 162.416L323.448 255.875" stroke="#EAEAEA" stroke-width="3.12136" stroke-linecap="round"/>
<path d="M340.606 161.32L247.147 179.562" stroke="#CBCBCB" stroke-width="3.12136" stroke-linecap="round"/>
<g opacity="0.6">
<path d="M316.845 150.417L258.845 250.874" stroke="#E6E6E6" stroke-width="3.12136" stroke-linecap="round"/>
<path d="M366.303 63.0208L318.692 145.486" stroke="white" stroke-width="3.12136" stroke-linecap="round"/>
<path d="M270.845 63.884L318.456 146.349" stroke="#EEEEEE" stroke-width="3.12136" stroke-linecap="round"/>
<path d="M249.729 79.6814L318.742 145.291" stroke="#BDBDBD" stroke-width="3.12136" stroke-linecap="round"/>
<path d="M318.319 148.217L410.005 173.927" stroke="#CDCDCD" stroke-width="3.12136" stroke-linecap="round"/>
<path d="M317.237 146.656L231.684 188.465" stroke="#EAEAEA" stroke-width="3.12136" stroke-linecap="round"/>
<path d="M318.576 147.418L325.145 242.414" stroke="#CBCBCB" stroke-width="3.12136" stroke-linecap="round"/>
</g>
<g opacity="0.6">
<path d="M286.657 137.701L256.635 249.747" stroke="#E6E6E6" stroke-width="3.12136" stroke-linecap="round"/>
<path d="M311.811 40.4822L287.165 132.46" stroke="white" stroke-width="3.12136" stroke-linecap="round"/>
<path d="M219.829 66.0229L287.161 133.356" stroke="#EEEEEE" stroke-width="3.12136" stroke-linecap="round"/>
<path d="M203.521 86.7468L287.163 132.259" stroke="#BDBDBD" stroke-width="3.12136" stroke-linecap="round"/>
<path d="M287.512 135.195L382.728 136.299" stroke="#CDCDCD" stroke-width="3.12136" stroke-linecap="round"/>
<path d="M286.063 133.967L214.246 196.494" stroke="#EAEAEA" stroke-width="3.12136" stroke-linecap="round"/>
<path d="M287.553 134.357L318.486 224.416" stroke="#CBCBCB" stroke-width="3.12136" stroke-linecap="round"/>
</g>
<g opacity="0.6">
<path d="M258.334 368.577L258.334 252.579" stroke="#E6E6E6" stroke-width="3.12136" stroke-linecap="round"/>
<path d="M259.2 468.994L259.2 373.771" stroke="white" stroke-width="3.12136" stroke-linecap="round"/>
<path d="M341.438 420.517L258.973 372.906" stroke="#EEEEEE" stroke-width="3.12136" stroke-linecap="round"/>
<path d="M351.825 396.279L259.254 373.965" stroke="#BDBDBD" stroke-width="3.12136" stroke-linecap="round"/>
<path d="M258.157 371.219L165.9 394.796" stroke="#CDCDCD" stroke-width="3.12136" stroke-linecap="round"/>
<path d="M259.875 372.03L313.062 293.046" stroke="#EAEAEA" stroke-width="3.12136" stroke-linecap="round"/>
<path d="M258.334 372.04L205.147 293.056" stroke="#CBCBCB" stroke-width="3.12136" stroke-linecap="round"/>
</g>
<g opacity="0.6">
<path d="M286.604 363.572L256.581 251.526" stroke="#E6E6E6" stroke-width="3.12136" stroke-linecap="round"/>
<path d="M313.43 460.343L288.784 368.365" stroke="white" stroke-width="3.12136" stroke-linecap="round"/>
<path d="M380.319 392.233L288.341 367.587" stroke="#EEEEEE" stroke-width="3.12136" stroke-linecap="round"/>
<path d="M384.079 366.132L288.887 368.538" stroke="#BDBDBD" stroke-width="3.12136" stroke-linecap="round"/>
<path d="M287.118 366.169L204.106 412.821" stroke="#CDCDCD" stroke-width="3.12136" stroke-linecap="round"/>
<path d="M288.986 366.509L319.918 276.45" stroke="#EAEAEA" stroke-width="3.12136" stroke-linecap="round"/>
<path d="M287.5 366.917L215.683 304.39" stroke="#CBCBCB" stroke-width="3.12136" stroke-linecap="round"/>
</g>
<g opacity="0.6">
<path d="M156.421 309.737L256.879 251.738" stroke="#E6E6E6" stroke-width="3.12136" stroke-linecap="round"/>
<path d="M69.0244 359.196L151.49 311.585" stroke="white" stroke-width="3.12136" stroke-linecap="round"/>
<path d="M69.8882 263.738L152.353 311.349" stroke="#EEEEEE" stroke-width="3.12136" stroke-linecap="round"/>
<path d="M85.6851 242.622L151.295 311.634" stroke="#BDBDBD" stroke-width="3.12136" stroke-linecap="round"/>
<path d="M154.221 311.211L179.931 402.897" stroke="#CDCDCD" stroke-width="3.12136" stroke-linecap="round"/>
<path d="M152.66 310.13L194.469 224.576" stroke="#EAEAEA" stroke-width="3.12136" stroke-linecap="round"/>
<path d="M153.422 311.469L248.418 318.038" stroke="#CBCBCB" stroke-width="3.12136" stroke-linecap="round"/>
</g>
<g opacity="0.6">
<path d="M172.934 333.114L254.958 251.091" stroke="#E6E6E6" stroke-width="3.12136" stroke-linecap="round"/>
<path d="M101.317 403.507L168.649 336.175" stroke="white" stroke-width="3.12136" stroke-linecap="round"/>
<path d="M77.4443 311.078L169.422 335.724" stroke="#EEEEEE" stroke-width="3.12136" stroke-linecap="round"/>
<path d="M87.2383 286.594L168.474 336.273" stroke="#BDBDBD" stroke-width="3.12136" stroke-linecap="round"/>
<path d="M171.191 335.107L219.755 417.015" stroke="#CDCDCD" stroke-width="3.12136" stroke-linecap="round"/>
<path d="M169.403 334.467L187.644 241.008" stroke="#EAEAEA" stroke-width="3.12136" stroke-linecap="round"/>
<path d="M170.486 335.562L263.945 317.321" stroke="#CBCBCB" stroke-width="3.12136" stroke-linecap="round"/>
</g>
<g opacity="0.6">
<path d="M200.113 146.291L258.112 246.748" stroke="#E6E6E6" stroke-width="3.12136" stroke-linecap="round"/>
<path d="M149.154 59.76L196.766 142.225" stroke="white" stroke-width="3.12136" stroke-linecap="round"/>
<path d="M102.173 142.861L197.395 142.861" stroke="#EEEEEE" stroke-width="3.12136" stroke-linecap="round"/>
<path d="M105.296 169.046L196.622 142.085" stroke="#BDBDBD" stroke-width="3.12136" stroke-linecap="round"/>
<path d="M198.944 143.914L267.053 77.3668" stroke="#CDCDCD" stroke-width="3.12136" stroke-linecap="round"/>
<path d="M197.052 144.07L190.482 239.065" stroke="#EAEAEA" stroke-width="3.12136" stroke-linecap="round"/>
<path d="M198.381 143.292L283.935 185.1" stroke="#CBCBCB" stroke-width="3.12136" stroke-linecap="round"/>
</g>
<g opacity="0.6">
<path d="M172.834 163.928L254.858 245.951" stroke="#E6E6E6" stroke-width="3.12136" stroke-linecap="round"/>
<path d="M101.217 93.5347L168.55 160.867" stroke="white" stroke-width="3.12136" stroke-linecap="round"/>
<path d="M77.3447 185.964L169.323 161.319" stroke="#EEEEEE" stroke-width="3.12136" stroke-linecap="round"/>
<path d="M87.1387 210.448L168.375 160.769" stroke="#BDBDBD" stroke-width="3.12136" stroke-linecap="round"/>
<path d="M171.091 161.935L219.656 80.0273" stroke="#CDCDCD" stroke-width="3.12136" stroke-linecap="round"/>
<path d="M169.303 162.575L187.545 256.034" stroke="#EAEAEA" stroke-width="3.12136" stroke-linecap="round"/>
<path d="M170.386 161.479L263.845 179.721" stroke="#CBCBCB" stroke-width="3.12136" stroke-linecap="round"/>
</g>
<g opacity="0.6">
<path d="M377.844 248.083L261.846 248.083" stroke="#E6E6E6" stroke-width="3.12136" stroke-linecap="round"/>
<path d="M478.261 248.948L383.038 248.948" stroke="white" stroke-width="3.12136" stroke-linecap="round"/>
<path d="M429.784 331.187L382.172 248.721" stroke="#EEEEEE" stroke-width="3.12136" stroke-linecap="round"/>
<path d="M405.546 341.574L383.232 249.003" stroke="#BDBDBD" stroke-width="3.12136" stroke-linecap="round"/>
<path d="M380.487 247.906L404.064 155.649" stroke="#CDCDCD" stroke-width="3.12136" stroke-linecap="round"/>
<path d="M381.298 249.623L302.314 302.81" stroke="#EAEAEA" stroke-width="3.12136" stroke-linecap="round"/>
<path d="M381.307 248.083L302.323 194.896" stroke="#CBCBCB" stroke-width="3.12136" stroke-linecap="round"/>
</g>
<g opacity="0.6">
<path d="M370.856 216.251L258.81 246.274" stroke="#E6E6E6" stroke-width="3.12136" stroke-linecap="round"/>
<path d="M468.075 191.097L376.097 215.743" stroke="white" stroke-width="3.12136" stroke-linecap="round"/>
<path d="M442.534 283.08L375.202 215.747" stroke="#EEEEEE" stroke-width="3.12136" stroke-linecap="round"/>
<path d="M421.811 299.387L376.298 215.746" stroke="#BDBDBD" stroke-width="3.12136" stroke-linecap="round"/>
<path d="M373.363 215.397L372.258 120.18" stroke="#CDCDCD" stroke-width="3.12136" stroke-linecap="round"/>
<path d="M374.591 216.845L312.064 288.663" stroke="#EAEAEA" stroke-width="3.12136" stroke-linecap="round"/>
<path d="M374.201 215.355L284.142 184.423" stroke="#CBCBCB" stroke-width="3.12136" stroke-linecap="round"/>
</g>
<path d="M358.501 198.582L258.044 256.581" stroke="#E6E6E6" stroke-width="3.12136" stroke-linecap="round"/>
<path d="M445.032 147.625L362.566 195.236" stroke="white" stroke-width="3.12136" stroke-linecap="round"/>
<path d="M361.931 100.643V195.865" stroke="#EEEEEE" stroke-width="3.12136" stroke-linecap="round"/>
<path d="M335.745 103.766L362.707 195.092" stroke="#BDBDBD" stroke-width="3.12136" stroke-linecap="round"/>
<path d="M360.878 197.414L427.425 265.523" stroke="#CDCDCD" stroke-width="3.12136" stroke-linecap="round"/>
<path d="M360.721 195.521L265.726 188.952" stroke="#EAEAEA" stroke-width="3.12136" stroke-linecap="round"/>
<path d="M361.5 196.851L319.691 282.404" stroke="#CBCBCB" stroke-width="3.12136" stroke-linecap="round"/>
<path d="M338.716 172.477L256.693 254.5" stroke="#E6E6E6" stroke-width="3.12136" stroke-linecap="round"/>
<path d="M409.109 100.859L341.777 168.192" stroke="white" stroke-width="3.12136" stroke-linecap="round"/>
<path d="M316.68 76.9873L341.325 168.965" stroke="#EEEEEE" stroke-width="3.12136" stroke-linecap="round"/>
<path d="M292.195 86.781L341.875 168.017" stroke="#BDBDBD" stroke-width="3.12136" stroke-linecap="round"/>
<path d="M340.709 170.733L422.617 219.298" stroke="#CDCDCD" stroke-width="3.12136" stroke-linecap="round"/>
<path d="M340.068 168.946L246.609 187.187" stroke="#EAEAEA" stroke-width="3.12136" stroke-linecap="round"/>
<path d="M341.164 170.029L322.923 263.488" stroke="#CBCBCB" stroke-width="3.12136" stroke-linecap="round"/>
<path d="M198.75 358.259L256.749 257.802" stroke="#E6E6E6" stroke-width="3.12136" stroke-linecap="round"/>
<path d="M149.291 445.656L196.902 363.191" stroke="white" stroke-width="3.12136" stroke-linecap="round"/>
<path d="M244.75 444.792L197.138 362.327" stroke="#EEEEEE" stroke-width="3.12136" stroke-linecap="round"/>
<path d="M265.865 428.995L196.852 363.385" stroke="#BDBDBD" stroke-width="3.12136" stroke-linecap="round"/>
<path d="M197.276 360.459L105.59 334.748" stroke="#CDCDCD" stroke-width="3.12136" stroke-linecap="round"/>
<path d="M198.357 362.02L283.911 320.211" stroke="#EAEAEA" stroke-width="3.12136" stroke-linecap="round"/>
<path d="M197.018 361.258L190.449 266.262" stroke="#CBCBCB" stroke-width="3.12136" stroke-linecap="round"/>
<path d="M225.735 368.059L255.757 256.013" stroke="#E6E6E6" stroke-width="3.12136" stroke-linecap="round"/>
<path d="M200.581 465.279L225.226 373.301" stroke="white" stroke-width="3.12136" stroke-linecap="round"/>
<path d="M292.563 439.738L225.231 372.405" stroke="#EEEEEE" stroke-width="3.12136" stroke-linecap="round"/>
<path d="M308.871 419.014L225.229 373.502" stroke="#BDBDBD" stroke-width="3.12136" stroke-linecap="round"/>
<path d="M224.881 370.566L129.664 369.462" stroke="#CDCDCD" stroke-width="3.12136" stroke-linecap="round"/>
<path d="M226.329 371.794L298.146 309.267" stroke="#EAEAEA" stroke-width="3.12136" stroke-linecap="round"/>
<path d="M224.839 371.404L193.907 281.346" stroke="#CBCBCB" stroke-width="3.12136" stroke-linecap="round"/>
<path d="M139.91 256.346L255.908 256.346" stroke="#E6E6E6" stroke-width="3.12136" stroke-linecap="round"/>
<path d="M39.4932 255.48H134.716" stroke="white" stroke-width="3.12136" stroke-linecap="round"/>
<path d="M87.97 173.242L135.581 255.708" stroke="#EEEEEE" stroke-width="3.12136" stroke-linecap="round"/>
<path d="M112.208 162.855L134.522 255.426" stroke="#BDBDBD" stroke-width="3.12136" stroke-linecap="round"/>
<path d="M137.268 256.523L113.691 348.78" stroke="#CDCDCD" stroke-width="3.12136" stroke-linecap="round"/>
<path d="M136.457 254.805L215.441 201.618" stroke="#EAEAEA" stroke-width="3.12136" stroke-linecap="round"/>
<path d="M136.447 256.346L215.431 309.533" stroke="#CBCBCB" stroke-width="3.12136" stroke-linecap="round"/>
<path d="M142.522 284.848L254.568 254.825" stroke="#E6E6E6" stroke-width="3.12136" stroke-linecap="round"/>
<path d="M45.3035 310.001L137.281 285.356" stroke="white" stroke-width="3.12136" stroke-linecap="round"/>
<path d="M70.8438 218.019L138.176 285.351" stroke="#EEEEEE" stroke-width="3.12136" stroke-linecap="round"/>
<path d="M91.5679 201.711L137.081 285.353" stroke="#BDBDBD" stroke-width="3.12136" stroke-linecap="round"/>
<path d="M140.016 285.702L141.12 380.918" stroke="#CDCDCD" stroke-width="3.12136" stroke-linecap="round"/>
<path d="M138.788 284.253L201.315 212.436" stroke="#EAEAEA" stroke-width="3.12136" stroke-linecap="round"/>
<path d="M139.178 285.743L229.237 316.676" stroke="#CBCBCB" stroke-width="3.12136" stroke-linecap="round"/>
<path d="M259.471 136.643L259.471 252.641" stroke="#E6E6E6" stroke-width="3.12136" stroke-linecap="round"/>
<path d="M258.605 36.2263V131.449" stroke="white" stroke-width="3.12136" stroke-linecap="round"/>
<path d="M176.368 84.7031L258.833 132.314" stroke="#EEEEEE" stroke-width="3.12136" stroke-linecap="round"/>
<path d="M165.98 108.942L258.552 131.255" stroke="#BDBDBD" stroke-width="3.12136" stroke-linecap="round"/>
<path d="M259.648 134.001L351.905 110.424" stroke="#CDCDCD" stroke-width="3.12136" stroke-linecap="round"/>
<path d="M257.931 133.189L204.744 212.173" stroke="#EAEAEA" stroke-width="3.12136" stroke-linecap="round"/>
<path d="M259.471 133.18L312.658 212.165" stroke="#CBCBCB" stroke-width="3.12136" stroke-linecap="round"/>
<path d="M227.029 138.279L257.052 250.325" stroke="#E6E6E6" stroke-width="3.12136" stroke-linecap="round"/>
<path d="M200.203 41.5073L224.849 133.485" stroke="white" stroke-width="3.12136" stroke-linecap="round"/>
<path d="M133.314 109.617L225.292 134.263" stroke="#EEEEEE" stroke-width="3.12136" stroke-linecap="round"/>
<path d="M129.554 135.719L224.746 133.313" stroke="#BDBDBD" stroke-width="3.12136" stroke-linecap="round"/>
<path d="M226.516 135.681L309.528 89.0289" stroke="#CDCDCD" stroke-width="3.12136" stroke-linecap="round"/>
<path d="M224.647 135.341L193.715 225.4" stroke="#EAEAEA" stroke-width="3.12136" stroke-linecap="round"/>
<path d="M226.133 134.934L297.95 197.461" stroke="#CBCBCB" stroke-width="3.12136" stroke-linecap="round"/>
<path d="M362.496 313.664L262.038 255.664" stroke="#E6E6E6" stroke-width="3.12136" stroke-linecap="round"/>
<path d="M449.026 364.621L366.561 317.01" stroke="white" stroke-width="3.12136" stroke-linecap="round"/>
<path d="M365.925 411.603L365.925 316.38" stroke="#EEEEEE" stroke-width="3.12136" stroke-linecap="round"/>
<path d="M339.74 408.48L366.701 317.154" stroke="#BDBDBD" stroke-width="3.12136" stroke-linecap="round"/>
<path d="M364.872 314.832L431.42 246.723" stroke="#CDCDCD" stroke-width="3.12136" stroke-linecap="round"/>
<path d="M364.716 316.724L269.721 323.293" stroke="#EAEAEA" stroke-width="3.12136" stroke-linecap="round"/>
<path d="M365.495 315.395L323.686 229.842" stroke="#CBCBCB" stroke-width="3.12136" stroke-linecap="round"/>
<path d="M372.36 282.602L260.314 252.579" stroke="#E6E6E6" stroke-width="3.12136" stroke-linecap="round"/>
<path d="M469.131 309.428L377.153 284.783" stroke="white" stroke-width="3.12136" stroke-linecap="round"/>
<path d="M401.021 376.317L376.375 284.339" stroke="#EEEEEE" stroke-width="3.12136" stroke-linecap="round"/>
<path d="M374.92 380.078L377.325 284.886" stroke="#BDBDBD" stroke-width="3.12136" stroke-linecap="round"/>
<path d="M374.958 283.116L421.609 200.104" stroke="#CDCDCD" stroke-width="3.12136" stroke-linecap="round"/>
<path d="M375.297 284.984L285.238 315.916" stroke="#EAEAEA" stroke-width="3.12136" stroke-linecap="round"/>
<path d="M375.704 283.499L313.177 211.681" stroke="#CBCBCB" stroke-width="3.12136" stroke-linecap="round"/>
</g>
<defs>
<clipPath id="clip0">
<rect width="512" height="512" fill="white"/>
</clipPath>
</defs>
</svg>
