<svg width="1440" height="800" viewBox="0 0 1440 800" fill="none" xmlns="http://www.w3.org/2000/svg">
<g clip-path="url(#clip0)">
<path d="M1290 798C1329.28 783.829 1413.47 756.013 1436 758.112" stroke="#252526"/>
<path d="M1144 802C1157.05 787.303 1195.04 755.523 1242.64 745.979C1302.13 734.048 1423.73 720.043 1442 705" stroke="#252526"/>
<path d="M1074 801C1080.09 782.034 1106.46 738.569 1163.25 716.437C1234.23 688.771 1406.47 667.891 1431 623" stroke="#252526"/>
<path d="M648 806C684.346 792.931 769.454 765.957 819.121 762.611C881.205 758.429 943.288 656.492 1022.07 614.149C1100.84 571.806 1246.92 522.144 1310.05 466.209C1360.55 421.461 1418.39 390.758 1441 381" stroke="#252526"/>
<path d="M324 801.5C401.361 770.889 576.366 697.697 613.499 671.816C659.915 639.466 860.184 550.764 911.816 520.5C963.448 490.237 1065.15 466.235 1125.64 408.84C1186.14 351.444 1323.83 257.002 1437 233" stroke="#252526"/>
<path d="M1432 46C1414.78 62.716 1289.03 102.416 1218.59 129.58C1148.15 156.743 1064.66 235.1 1054.75 261.218C1044.83 287.337 961.868 367.783 900.818 395.469C839.769 423.155 634.184 542.778 546.002 596.583C457.819 650.388 307.022 672.327 273.106 679.118C239.189 685.909 127.005 720.386 119.178 716.729C107.49 711.714 87.5226 713.943 79 715.685C53.8333 717.623 -2.3 728 -25.5 754" stroke="#252526"/>
<path d="M1165 -19C1103.38 -5.41689 997.884 89.1425 932.082 198.33C866.28 307.517 690.286 426.631 602.549 486.187C514.813 545.744 402.532 561.939 351.875 567.686C301.218 573.433 220.793 571.343 189.981 565.074C165.332 560.059 101.723 569.602 73 575C52.6667 576.667 6.2 584.3 -17 601.5" stroke="#252526"/>
<path d="M1069 -24C989.17 0.00221443 898.384 171.148 886.383 194.107C874.383 217.066 775.77 335.511 693.332 397.604C610.893 459.697 572.805 480.568 509.672 509.788C459.165 533.164 376.274 540.052 341.142 540.574C220.616 544.226 224.79 523.131 192.44 525.442C173.657 526.784 186.179 533.791 130.351 533.791C74.5223 533.791 62 532.747 62 532.747C38.8333 532.46 -10 530.596 -20 525.442" stroke="#252526"/>
<path d="M966 -28C954.517 -21.2061 880.402 128.26 841.256 192.019C802.111 255.777 783.843 281.385 672.148 382.249C560.453 483.113 492.078 494.61 458.152 504.54C424.226 514.469 374.12 519.173 300.527 516.037C226.933 512.902 194.573 493.565 183.09 497.223C173.904 500.15 98.5358 496.004 62 493.565C35.3333 493.043 -19 491.7 -23 490.5" stroke="#252526"/>
<path d="M797 -23C785.508 4.97695 759.495 75.1105 747.377 131.829C732.229 202.727 669.547 304.383 598.508 370.068C527.468 435.753 444.415 445.657 388.001 452.434C331.588 459.211 246.967 444.093 167.57 404.995C104.053 373.717 38.7245 368.677 14 370.068H-17" stroke="#252526"/>
<path d="M734 -12C715.73 44.8257 718.862 190.279 617.072 314.878C515.283 439.477 438.027 428.008 387.915 431.657C337.803 435.307 216.699 409.24 190.078 380.566C168.78 357.628 77.1519 326.869 34 314.357C19 309.571 -14.8 295.5 -30 277.5" stroke="#252526"/>
<path d="M0 -20.0788C7.30246 22.2166 43.2931 96.3641 101.191 134.482C131.966 156.413 144.484 279.285 257.151 347.526C319.222 385.122 402.678 411.752 498.653 365.28C636.879 285.91 633.227 137.615 624.36 103.674C615.493 69.7337 599.323 8.11811 606.626 -30" stroke="#252526"/>
<path d="M73 -13.9003C113.834 21.2619 196.231 105.373 199.15 160.518C202.799 229.45 232.512 326.581 343.024 359.48C453.536 392.38 528.6 321.881 554.664 285.849C580.728 249.816 600.537 188.195 583.856 128.141C567.175 68.0868 514.525 5.42149 514.004 -28" stroke="#252526"/>
<path d="M158 -4.98781C196.12 13.8012 270.584 61.1911 263.482 100.439C254.605 149.499 234.762 269.54 321.968 317.556C409.173 365.572 484.369 328.516 520.4 281.544C556.431 234.572 560.608 170.376 527.188 116.619C493.768 62.8612 449.382 56.0763 439.982 33.6339C426.928 6.49433 438.938 -23.6028 443.116 -41" stroke="#252526"/>
<path d="M396.634 114C377.673 116.082 337.664 126.703 329.314 152.524C318.877 184.802 301.133 197.296 315.224 249.877C329.314 302.457 398.2 320.678 463.955 286.839C529.71 253 510.401 172.828 479.611 146.277C454.979 125.037 434.904 115.909 427.946 114" stroke="#252526"/>
<path d="M682 -25C673.117 -13.004 669.459 51.67 669.459 92.8736C669.459 134.077 673.117 210.747 601.528 302.543C529.94 394.338 459.396 408.942 384.672 409.985C309.948 411.028 190.286 357.307 151.618 308.28C120.683 269.058 59.6498 240.476 33 231.088C18.5 224.726 -12.8 212.2 -22 213" stroke="#252526"/>
<path d="M844 -39C841.912 18.4421 780.837 147.948 740.642 226.278C700.447 304.608 643.547 352.651 591.868 397.038C540.189 441.425 402.899 503.567 257.78 458.135C141.684 421.79 46.8868 413.4 14 413.748C10.8333 413.332 0.299999 413.9 -16.5 419.5" stroke="#252526"/>
<path d="M906 -32C900.257 -28.8655 861.62 65.1684 849.09 98.6027C836.559 132.037 802.1 206.742 701.854 325.329C601.608 443.916 485.699 479.44 414.17 495.113C342.64 510.785 261.713 484.664 224.643 474.216C194.986 465.858 99.8575 458.196 56 455.409C37.8333 454.773 -1.2 455.1 -12 461.5" stroke="#252526"/>
<path d="M1340 -27.4606C1332.69 -34.2499 1114.41 23.198 1031.9 136.527C949.391 249.856 875.238 330.283 829.807 355.351C784.375 380.419 634.502 497.404 530.584 547.018C426.665 596.632 326.402 602.377 256.949 604.466C187.496 606.555 176.53 590.887 153.03 602.377C134.231 611.568 89.8438 615.955 70 617C41.3333 618.667 -18.2 621 -27 617" stroke="#252526"/>
<path d="M1418 -18C1319.34 18.5171 1164.3 91.5513 1113.67 127.547C1052.07 171.335 964.373 303.351 916.87 339.346C888.16 363.343 614.626 522.453 573.91 550.624C533.193 578.794 454.369 592.357 418.873 611.659C383.376 630.961 189.71 650.263 165.176 652.35C140.641 654.437 134.377 642.438 126.025 651.307C119.343 658.401 91.2243 665.392 78 668C62 670.5 21.1 672.7 -14.5 661.5" stroke="#252526"/>
<path d="M1462 104C1445.81 131.161 1315.27 164.589 1243.21 184.437C1171.15 204.286 1070.89 316.584 1051.04 341.656C1031.2 366.727 950.263 418.437 890.735 445.598C831.206 472.758 648.965 562.075 597.269 604.905C545.573 647.736 257.33 736.008 185.791 758.468C128.56 776.435 86.7508 778.838 73 777.793C55.6667 778.04 12.8 776.526 -20 768.5" stroke="#252526"/>
<path d="M203.5 802.5C315.71 762.831 574.067 666.12 615.82 630.627C668.01 586.26 920.091 466.209 1022.91 419.233C1125.72 372.257 1114.76 314.319 1217.58 263.689C1299.83 223.185 1409.46 188.353 1454 176" stroke="#252526"/>
<path d="M413 802C473.358 775.204 615.972 713.645 663.563 697.776C723.051 677.94 851.943 581.892 973.007 539.088C1094.07 496.284 1296.54 326.634 1439 276" stroke="#252526"/>
<path d="M485.5 802C521.51 788.779 608.39 756.727 661.83 746.29C728.631 733.242 843.445 669.572 912.856 622.081C982.266 574.589 1126.83 519.791 1234.33 454.034C1341.84 388.276 1369.5 348.091 1441 334" stroke="#252526"/>
<path d="M931 802C949.797 760.599 1005.98 669.759 1080.33 637.612C1173.27 597.429 1267.26 576.032 1326.26 525.411C1385.26 474.79 1427.56 450.262 1438 444" stroke="#252526"/>
<path d="M1012 802C1024.51 784.422 1039.15 752.723 1060.99 726.292C1101.12 677.735 1219.94 625.522 1273.62 621.345C1348.23 615.54 1435.18 533.628 1443 507" stroke="#252526"/>
</g>
<defs>
<clipPath id="clip0">
<rect width="1440" height="800" fill="white"/>
</clipPath>
</defs>
</svg>
