<?xml version="1.0" encoding="UTF-8"?>
<svg xmlns="http://www.w3.org/2000/svg" xmlns:xlink="http://www.w3.org/1999/xlink" width="32pt" height="32pt" viewBox="0 0 32 32" version="1.1">
<g id="surface1">
<path style="stroke:none;fill-rule:nonzero;fill:rgb(100%,100%,100%);fill-opacity:1;" d="M 0 14.667969 L 4.09375 14.667969 C 4.019531 15.109375 4.019531 15.554688 4.019531 16 C 4.019531 16.445312 4.019531 16.890625 4.09375 17.332031 L 1.191406 17.332031 L 0 20 L 4.539062 20 C 6.398438 26.816406 12.761719 32 20.09375 32 C 24.148438 32 27.945312 30.40625 30.808594 27.816406 L 30.808594 23.964844 C 28.351562 27.222656 24.445312 29.332031 20.09375 29.332031 C 14.140625 29.332031 9.042969 25.40625 7.332031 20 L 25.449219 20 L 26.640625 17.332031 L 6.773438 17.332031 C 6.699219 16.890625 6.699219 16.445312 6.699219 16 C 6.699219 15.628906 6.699219 15.109375 6.773438 14.667969 L 27.832031 14.667969 L 29.023438 12 L 7.332031 12 C 9.003906 6.667969 14.066406 2.667969 20.09375 2.667969 C 24.78125 2.667969 28.351562 4.777344 30.808594 8 L 32 5.371094 C 29.023438 2.074219 24.78125 0 20.09375 0 C 12.726562 0 6.363281 5.257812 4.539062 12 L 1.191406 12 Z M 0 14.667969 "/>
</g>
</svg>
