<?xml version="1.0" standalone="no"?>
<!DOCTYPE svg PUBLIC "-//W3C//DTD SVG 1.0//EN" "http://www.w3.org/TR/2001/REC-SVG-20010904/DTD/svg10.dtd">
<svg xmlns="http://www.w3.org/2000/svg" xmlns:xlink="http://www.w3.org/1999/xlink" id="body_1" width="15" height="11">
<g transform="matrix(0.01464844 0 0 0.01432292 0 0)">
	<g transform="matrix(7.68 0 0 7.68 128 0)">
	</g>
    <path transform="matrix(7.68 0 0 7.68 128 0)"  d="M72.7 71.5C 63.9 71.5 57 64.2 50.6 56.2C 44 64.3 36.9 71.5 27.3 71.5C 14.2 71.5 5 62.7 5 50C 5 37.3 14.2 28.5 27.3 28.5C 36.7 28.5 43.9 36.1 50.5 44.4C 56.9 36.4 63.6 28.8 72.5 28.5L72.5 28.5L72.6 28.5C 85 28.5 95 38.1 95 50C 95 62.3 83.2 71.5 72.7 71.5zM55.2 50.3C 60.9 57.4 66.7 64.2 72.7 64.2C 81.1 64.2 87.7 56.6 87.7 50C 87.7 42.3 80.89999 35.89999 72.8 35.8C 66.6 36.09999 61.09999 42.8 55.2 50.3zM27.3 35.8C 18.2 35.8 12.3 41.4 12.3 50C 12.3 58.5 18.3 64.2 27.3 64.2C 34.1 64.2 40.1 57.6 45.9 50.3C 40 42.89999 33.9 35.8 27.3 35.8z" stroke="none" fill="white" fill-rule="nonzero" />
</g>
</svg>