<?xml version="1.0" encoding="UTF-8"?>
<svg xmlns="http://www.w3.org/2000/svg" xmlns:xlink="http://www.w3.org/1999/xlink" width="30pt" height="30pt" viewBox="0 0 30 30" version="1.1">
<g id="surface1">
<path style=" stroke:none;fill-rule:nonzero;fill:white;fill-opacity:1;" d="M 21.808594 21.449219 C 19.171875 21.449219 17.101562 19.261719 15.179688 16.859375 C 13.199219 19.289062 11.070312 21.449219 8.191406 21.449219 C 4.261719 21.449219 1.5 18.808594 1.5 15 C 1.5 11.191406 4.261719 8.550781 8.191406 8.550781 C 11.011719 8.550781 13.171875 10.828125 15.148438 13.320312 C 17.070312 10.921875 19.078125 8.640625 21.75 8.550781 L 21.78125 8.550781 C 25.5 8.550781 28.5 11.429688 28.5 15 C 28.5 18.691406 24.960938 21.449219 21.808594 21.449219 Z M 16.558594 15.089844 C 18.269531 17.21875 20.011719 19.261719 21.808594 19.261719 C 24.328125 19.261719 26.308594 16.980469 26.308594 15 C 26.308594 12.691406 24.269531 10.769531 21.839844 10.738281 C 19.980469 10.828125 18.328125 12.839844 16.558594 15.089844 Z M 8.191406 10.738281 C 5.460938 10.738281 3.691406 12.421875 3.691406 15 C 3.691406 17.550781 5.488281 19.261719 8.191406 19.261719 C 10.230469 19.261719 12.03125 17.28125 13.769531 15.089844 C 12 12.871094 10.171875 10.738281 8.191406 10.738281 Z M 8.191406 10.738281 "/>
</g>
</svg>
