<svg width="15" height="30" viewBox="0 0 15 30" fill="none" xmlns="http://www.w3.org/2000/svg">
<g clip-path="url(#clip0)">
<path d="M14.8125 2.25418C14.8125 3.06499 14.2232 3.41634 13.6875 3.41634C13.1786 3.41634 12.5893 3.06499 12.5893 2.2812C12.5893 1.90283 12.8036 1.2812 13.5804 1.1731C12.9911 0.659582 12.1607 0.605528 11.8929 0.605528C10.6875 0.605528 9.77679 1.2812 9.40179 6.25418L8.89286 12.9839C8.67857 15.9839 7.71429 23.8488 7.36607 25.2542C6.77679 27.6866 5.49107 30.038 2.94643 30.038C1.33929 30.038 0 29.092 0 27.7947C0 26.9839 0.589286 26.6326 1.125 26.6326C1.63393 26.6326 2.22321 26.9839 2.22321 27.7677C2.22321 28.1461 2.00893 28.7677 1.23214 28.8758C1.79464 29.3623 2.59821 29.4434 2.94643 29.4434C4.47321 29.4434 5.4375 28.2272 5.78571 23.7947L6.29464 17.065C6.53571 13.7947 7.5 6.1731 7.82143 4.68661C8.27679 2.63256 9.32143 0.0109348 11.8661 0.0109348C13.4732 0.0109348 14.8125 0.956881 14.8125 2.25418Z" fill="white"/>
</g>
<defs>
<clipPath id="clip0">
<rect width="15" height="30" fill="white"/>
</clipPath>
</defs>
</svg>
