<svg width="22" height="26" viewBox="0 0 22 26" fill="none" xmlns="http://www.w3.org/2000/svg">
<path d="M3.47299 3.256C3.29692 2.808 3.08083 2.504 2.82473 2.344C2.4886 2.136 1.9924 2.008 1.33613 1.96H1V1H21V1.96H20.6639C20.1196 1.992 19.6875 2.088 19.3673 2.248C19.0472 2.408 18.8471 2.568 18.7671 2.728C18.6871 2.888 18.615 3.064 18.551 3.256V22.72C18.7431 23.536 19.4474 23.976 20.6639 24.04H21V25H13.3649V24.04H13.7011C14.2453 24.008 14.6775 23.904 14.9976 23.728C15.3177 23.552 15.5178 23.4 15.5978 23.272C15.6779 23.144 15.7579 22.96 15.8379 22.72V1.96H6.16207V12.352L6.18607 22.72C6.37815 23.536 7.08243 23.976 8.29892 24.04H8.63505V25H1V24.04H1.33613C1.88035 24.008 2.31253 23.904 2.63265 23.728C2.95278 23.552 3.15286 23.4 3.23289 23.272C3.31293 23.144 3.39296 22.96 3.47299 22.72V3.256Z" fill="white" stroke="#3B3B3D" stroke-width="0.2"/>
</svg>
