<svg width="35" height="26" viewBox="0 0 35 26" fill="none" xmlns="http://www.w3.org/2000/svg">
<g clip-path="url(#clip0)">
<path d="M5.53765 0L0.040863 25.8172H1.9208L7.02934 1.74687H9.03188L3.92335 25.8172H5.80329L11.2796 0H5.53765ZM25.1953 3.39219C25.4609 2.21406 25.3179 1.34062 24.8275 0.771875C24.3984 0.284375 23.7445 0.0203125 22.8862 0.0203125H20.3728L14.876 25.8375H16.756L18.0842 19.5812H18.9016C20.7406 19.5812 21.9871 18.4031 22.4571 16.3109L25.1953 3.39219V3.39219ZM20.6589 16.1687C20.332 17.6109 19.6781 17.8141 19.1468 17.8141H18.452L21.8645 1.74687H22.6615C22.9475 1.74687 23.1927 1.80781 23.2949 1.95C23.4993 2.15312 23.4993 2.6 23.3971 3.25L20.6589 16.1687V16.1687ZM16.7151 0H14.8556L7.04977 25.8172H8.92971L10.0945 22.0187H12.1583L11.7088 25.8172H13.5887L16.7969 0H16.7151ZM12.3831 20.2922H10.6462L14.8556 4.57031L12.3831 20.2922ZM31.959 0L27.0548 12.0859L29.6295 0H27.7496L22.2528 25.8172H24.1327L27.0139 12.2891V25.8172H28.9143V12.1266L34.0024 0H31.959Z" fill="white"/>
</g>
<defs>
<clipPath id="clip0">
<rect width="34.125" height="26" fill="white"/>
</clipPath>
</defs>
</svg>
