<svg width="23" height="24" viewBox="0 0 23 24" fill="none" xmlns="http://www.w3.org/2000/svg">
<path d="M0.616649 0.0480003C0.663309 0.0159988 3.99169 0 10.6018 0H20.4936L21.4502 2.64C21.6212 3.136 21.7923 3.624 21.9634 4.104C22.1345 4.584 22.2667 4.952 22.36 5.208C22.4533 5.464 22.5 5.6 22.5 5.616H22.0334L21.5668 5.592C21.2091 4.6 20.6414 3.768 19.8637 3.096C19.0861 2.424 18.2384 1.936 17.3208 1.632C16.4965 1.344 15.5477 1.16 14.4745 1.08C13.4014 1 11.6983 0.959999 9.36532 0.959999H6.63574C4.5205 0.959999 3.46288 0.968 3.46288 0.983999C3.50954 1.032 4.79268 2.832 7.3123 6.384C9.83192 9.936 11.0995 11.736 11.1151 11.784C11.2084 11.928 11.2239 12.048 11.1617 12.144L10.6251 12.816C10.2519 13.264 9.70749 13.92 8.99205 14.784C8.2766 15.648 7.57671 16.504 6.89236 17.352L2.66967 22.488C2.66967 22.504 4.32609 22.512 7.63892 22.512C8.0433 22.512 8.61877 22.512 9.36532 22.512C10.1119 22.512 10.6562 22.52 10.9984 22.536C13.6891 22.536 15.8043 22.32 17.3441 21.888C18.8839 21.456 20.1126 20.504 21.0302 19.032C21.1858 18.776 21.3646 18.384 21.5668 17.856H22.5L20.4936 23.976L10.6018 24C4.00725 24 0.686638 23.984 0.639979 23.952C0.54666 23.92 0.5 23.848 0.5 23.736C0.5 23.656 0.982149 23.032 1.94645 21.864C3.00407 20.584 3.99169 19.384 4.90933 18.264L9.17869 13.056C9.17869 13.04 7.73224 10.992 4.83934 6.912L0.52333 0.792L0.5 0.528C0.5 0.271999 0.538883 0.112 0.616649 0.0480003Z" fill="white"/>
</svg>
